<svg xmlns="http://www.w3.org/2000/svg" viewBox="0 0 1600 900" role="img" aria-labelledby="title desc">
  <title id="title">Humans guiding a coordinated team of AI agents</title>
  <desc id="desc">A restrained enterprise technology illustration with a human decision maker on each side of a coordinated agent team.</desc>
  <defs>
    <linearGradient id="bg" x1="0" y1="0" x2="1" y2="1">
      <stop offset="0" stop-color="#f6f8fb"/>
      <stop offset="1" stop-color="#edf4fb"/>
    </linearGradient>
    <linearGradient id="panel" x1="0" y1="0" x2="1" y2="1">
      <stop offset="0" stop-color="#ffffff"/>
      <stop offset="1" stop-color="#edf6ff"/>
    </linearGradient>
    <filter id="shadow" x="-20%" y="-20%" width="140%" height="140%">
      <feDropShadow dx="0" dy="18" stdDeviation="22" flood-color="#0f2742" flood-opacity="0.14"/>
    </filter>
    <pattern id="grid" width="60" height="60" patternUnits="userSpaceOnUse">
      <path d="M 60 0 L 0 0 0 60" fill="none" stroke="#d8e3ef" stroke-width="1"/>
    </pattern>
    <style>
      .navy { fill: #12324a; }
      .muted { fill: #5b7083; }
      .line { stroke: #8fb4d9; stroke-width: 4; fill: none; stroke-linecap: round; }
      .accent { fill: #2b6cb0; }
      .teal { fill: #1a9aa2; }
      .node { fill: #ffffff; stroke: #9fc2e4; stroke-width: 3; }
      .label { font: 600 28px "Segoe UI", Arial, sans-serif; fill: #12324a; }
      .small { font: 500 20px "Segoe UI", Arial, sans-serif; fill: #5b7083; }
      .nodeText { font: 600 18px "Segoe UI", Arial, sans-serif; fill: #12324a; }
      .micro { font: 600 18px "Segoe UI", Arial, sans-serif; fill: #2b6cb0; letter-spacing: 0.5px; }
    </style>
  </defs>
  <rect width="1600" height="900" fill="url(#bg)"/>
  <rect width="1600" height="900" fill="url(#grid)" opacity="0.42"/>
  <circle cx="1270" cy="140" r="250" fill="#cfe7f6" opacity="0.45"/>
  <circle cx="280" cy="760" r="260" fill="#dbeafe" opacity="0.55"/>

  <rect x="310" y="150" width="980" height="600" rx="42" fill="url(#panel)" filter="url(#shadow)"/>
  <text x="800" y="215" text-anchor="middle" class="micro">ENTERPRISE OPERATING MODEL</text>
  <text x="800" y="260" text-anchor="middle" class="label">Humans set direction. Agents coordinate the work.</text>

  <path class="line" d="M 455 452 C 560 360, 650 360, 735 445"/>
  <path class="line" d="M 865 445 C 950 360, 1040 360, 1145 452"/>
  <path class="line" d="M 455 452 C 590 548, 705 548, 800 472"/>
  <path class="line" d="M 1145 452 C 1010 548, 895 548, 800 472"/>

  <g transform="translate(170 353)">
    <circle cx="75" cy="60" r="42" fill="#12324a"/>
    <path d="M 22 178 C 34 112, 116 112, 128 178 Z" fill="#2b6cb0"/>
    <rect x="1" y="181" width="148" height="20" rx="10" fill="#8fb4d9"/>
    <text x="75" y="245" text-anchor="middle" class="label">Leader</text>
    <text x="75" y="278" text-anchor="middle" class="small">intent</text>
    <text x="75" y="305" text-anchor="middle" class="small">+ guardrails</text>
  </g>

  <g transform="translate(1280 353)">
    <circle cx="75" cy="60" r="42" fill="#12324a"/>
    <path d="M 22 178 C 34 112, 116 112, 128 178 Z" fill="#1a9aa2"/>
    <rect x="1" y="181" width="148" height="20" rx="10" fill="#8fb4d9"/>
    <text x="75" y="245" text-anchor="middle" class="label">Reviewer</text>
    <text x="75" y="278" text-anchor="middle" class="small">judgment</text>
    <text x="75" y="305" text-anchor="middle" class="small">+ approval</text>
  </g>

  <g filter="url(#shadow)">
    <circle class="node" cx="800" cy="470" r="78"/>
    <rect x="754" y="424" width="92" height="92" rx="20" fill="#e8f2ff" stroke="#2b6cb0" stroke-width="3"/>
    <path d="M 744 445 L 754 445 M 744 470 L 754 470 M 744 495 L 754 495 M 846 445 L 856 445 M 846 470 L 856 470 M 846 495 L 856 495" stroke="#2b6cb0" stroke-width="4" stroke-linecap="round"/>
    <circle cx="781" cy="457" r="7" class="accent"/>
    <circle cx="819" cy="457" r="7" class="teal"/>
    <path d="M 781 483 L 819 483" stroke="#2b6cb0" stroke-width="4" stroke-linecap="round"/>
    <path d="M 800 483 L 800 501" stroke="#2b6cb0" stroke-width="4" stroke-linecap="round"/>
    <circle cx="800" cy="505" r="5" fill="#2b6cb0"/>
  </g>

  <g>
    <rect class="node" x="538" y="318" width="144" height="74" rx="28"/>
    <text x="610" y="349" text-anchor="middle" class="nodeText">Design</text>
    <text x="610" y="374" text-anchor="middle" class="nodeText">agent</text>
    <rect class="node" x="918" y="318" width="144" height="74" rx="28"/>
    <text x="990" y="349" text-anchor="middle" class="nodeText">Security</text>
    <text x="990" y="374" text-anchor="middle" class="nodeText">agent</text>
    <rect class="node" x="538" y="548" width="144" height="74" rx="28"/>
    <text x="610" y="579" text-anchor="middle" class="nodeText">Build</text>
    <text x="610" y="604" text-anchor="middle" class="nodeText">agent</text>
    <rect class="node" x="918" y="548" width="144" height="74" rx="28"/>
    <text x="990" y="579" text-anchor="middle" class="nodeText">Critic</text>
    <text x="990" y="604" text-anchor="middle" class="nodeText">agent</text>
  </g>

  <path d="M 331 454 L 420 454" stroke="#2b6cb0" stroke-width="5" stroke-linecap="round"/>
  <path d="M 420 454 L 401 441 M 420 454 L 401 467" stroke="#2b6cb0" stroke-width="5" stroke-linecap="round"/>
  <path d="M 1180 454 L 1269 454" stroke="#1a9aa2" stroke-width="5" stroke-linecap="round"/>
  <path d="M 1269 454 L 1250 441 M 1269 454 L 1250 467" stroke="#1a9aa2" stroke-width="5" stroke-linecap="round"/>
</svg>
